<svg width="121" height="40" viewBox="0 0 121 40" fill="none" xmlns="http://www.w3.org/2000/svg">
<g clip-path="url(#clip0_893_86)">
<path fill-rule="evenodd" clip-rule="evenodd" d="M25.5557 11.6853C23.9112 10.5865 21.9778 10 20 10V0C23.9556 0 27.8224 1.17298 31.1114 3.37061C34.4004 5.56823 36.9638 8.69181 38.4776 12.3463C39.9913 16.0008 40.3874 20.0222 39.6157 23.9018C38.844 27.7814 36.9392 31.3451 34.1421 34.1421C31.3451 36.9392 27.7814 38.844 23.9018 39.6157C20.0222 40.3874 16.0008 39.9913 12.3463 38.4776C8.69181 36.9638 5.56823 34.4004 3.37061 31.1114C1.17298 27.8224 0 23.9556 0 20H10C10 21.9778 10.5865 23.9112 11.6853 25.5557C12.7841 27.2002 14.3459 28.4819 16.1732 29.2388C18.0004 29.9957 20.0111 30.1937 21.9509 29.8078C23.8907 29.422 25.6725 28.4696 27.0711 27.0711C28.4696 25.6725 29.422 23.8907 29.8078 21.9509C30.1937 20.0111 29.9957 18.0004 29.2388 16.1732C28.4819 14.3459 27.2002 12.7841 25.5557 11.6853Z" fill="#007DFC"/>
<path fill-rule="evenodd" clip-rule="evenodd" d="M10 4.33125e-06C10 1.31322 9.74135 2.61358 9.2388 3.82683C8.73625 5.04009 7.99965 6.14248 7.07106 7.07107C6.14249 7.99966 5.04009 8.73625 3.82683 9.2388C2.61357 9.74134 1.31322 10 4.3711e-07 10L0 20C2.62644 20 5.22715 19.4827 7.65368 18.4776C10.0802 17.4725 12.285 15.9993 14.1421 14.1421C15.9993 12.285 17.4725 10.0802 18.4776 7.65367C19.4827 5.22715 20 2.62643 20 0L10 4.33125e-06Z" fill="#007DFC"/>
<path d="M51.0114 26V14.3636H58.8523V16.392H53.4716V19.1648H58.4489V21.1932H53.4716V23.9716H58.875V26H51.0114ZM64.0787 26.142C63.4158 26.142 62.8154 25.9716 62.2776 25.6307C61.7435 25.286 61.3192 24.7803 61.0048 24.1136C60.6942 23.4432 60.5389 22.6212 60.5389 21.6477C60.5389 20.6477 60.6999 19.8163 61.0219 19.1534C61.3438 18.4867 61.7719 17.9886 62.306 17.6591C62.8438 17.3258 63.4329 17.1591 64.073 17.1591C64.5616 17.1591 64.9688 17.2424 65.2946 17.4091C65.6241 17.572 65.8893 17.7765 66.0901 18.0227C66.2946 18.2652 66.4499 18.5038 66.556 18.7386H66.6298V14.3636H69.0446V26H66.6582V24.6023H66.556C66.4423 24.8447 66.2813 25.0852 66.073 25.3239C65.8685 25.5587 65.6014 25.7538 65.2719 25.9091C64.9461 26.0644 64.5484 26.142 64.0787 26.142ZM64.8457 24.2159C65.2359 24.2159 65.5654 24.1098 65.8344 23.8977C66.1071 23.6818 66.3154 23.3807 66.4594 22.9943C66.6071 22.608 66.681 22.1553 66.681 21.6364C66.681 21.1174 66.609 20.6667 66.4651 20.2841C66.3211 19.9015 66.1128 19.6061 65.8401 19.3977C65.5673 19.1894 65.2359 19.0852 64.8457 19.0852C64.448 19.0852 64.1128 19.1932 63.8401 19.4091C63.5673 19.625 63.3609 19.9242 63.2207 20.3068C63.0806 20.6894 63.0105 21.1326 63.0105 21.6364C63.0105 22.1439 63.0806 22.5928 63.2207 22.983C63.3647 23.3693 63.5711 23.6723 63.8401 23.892C64.1128 24.108 64.448 24.2159 64.8457 24.2159ZM76.7313 22.2841V17.2727H79.1517V26H76.8278V24.4148H76.7369C76.54 24.9261 76.2123 25.3371 75.754 25.6477C75.2994 25.9583 74.7445 26.1136 74.0892 26.1136C73.5059 26.1136 72.9926 25.9811 72.5494 25.7159C72.1063 25.4508 71.7597 25.0739 71.5097 24.5852C71.2634 24.0966 71.1384 23.5114 71.1347 22.8295V17.2727H73.5551V22.3977C73.5589 22.9129 73.6972 23.3201 73.9699 23.6193C74.2426 23.9186 74.6081 24.0682 75.0665 24.0682C75.3581 24.0682 75.6309 24.0019 75.8847 23.8693C76.1384 23.733 76.343 23.5322 76.4983 23.267C76.6574 23.0019 76.735 22.6742 76.7313 22.2841ZM91.5003 18.4375H89.0116C88.9662 18.1155 88.8734 17.8295 88.7332 17.5795C88.5931 17.3258 88.4132 17.1098 88.1935 16.9318C87.9738 16.7538 87.72 16.6174 87.4321 16.5227C87.148 16.428 86.8393 16.3807 86.506 16.3807C85.9037 16.3807 85.3791 16.5303 84.9321 16.8295C84.4851 17.125 84.1385 17.5568 83.8923 18.125C83.6461 18.6894 83.523 19.375 83.523 20.1818C83.523 21.0114 83.6461 21.7083 83.8923 22.2727C84.1423 22.8371 84.4908 23.2633 84.9378 23.5511C85.3848 23.839 85.9018 23.983 86.4889 23.983C86.8185 23.983 87.1234 23.9394 87.4037 23.8523C87.6878 23.7652 87.9397 23.6383 88.1594 23.4716C88.3791 23.3011 88.5609 23.0947 88.7048 22.8523C88.8526 22.6098 88.9548 22.3333 89.0116 22.0227L91.5003 22.0341C91.4359 22.5682 91.2749 23.0833 91.0173 23.5795C90.7635 24.072 90.4207 24.5133 89.9889 24.9034C89.5609 25.2898 89.0495 25.5966 88.4548 25.8239C87.8639 26.0473 87.1954 26.1591 86.4491 26.1591C85.4113 26.1591 84.4832 25.9242 83.6651 25.4545C82.8507 24.9848 82.2067 24.3049 81.7332 23.4148C81.2635 22.5246 81.0287 21.447 81.0287 20.1818C81.0287 18.9129 81.2673 17.8333 81.7446 16.9432C82.2219 16.053 82.8696 15.375 83.6878 14.9091C84.506 14.4394 85.4264 14.2045 86.4491 14.2045C87.1234 14.2045 87.7484 14.2992 88.3241 14.4886C88.9037 14.678 89.417 14.9545 89.8639 15.3182C90.3109 15.678 90.6745 16.1193 90.9548 16.642C91.2389 17.1648 91.4207 17.7633 91.5003 18.4375ZM93.319 26V17.2727H95.6656V18.7955H95.7565C95.9156 18.2538 96.1827 17.8447 96.5577 17.5682C96.9327 17.2879 97.3645 17.1477 97.8531 17.1477C97.9743 17.1477 98.105 17.1553 98.2452 17.1705C98.3853 17.1856 98.5084 17.2064 98.6145 17.233V19.3807C98.5009 19.3466 98.3437 19.3163 98.1429 19.2898C97.9421 19.2633 97.7584 19.25 97.5918 19.25C97.2357 19.25 96.9175 19.3277 96.6372 19.483C96.3607 19.6345 96.141 19.8466 95.9781 20.1193C95.819 20.392 95.7395 20.7064 95.7395 21.0625V26H93.319ZM102.205 26.1648C101.648 26.1648 101.152 26.0682 100.716 25.875C100.28 25.678 99.9356 25.3883 99.6818 25.0057C99.4318 24.6193 99.3068 24.1383 99.3068 23.5625C99.3068 23.0777 99.3958 22.6705 99.5739 22.3409C99.7519 22.0114 99.9943 21.7462 100.301 21.5455C100.608 21.3447 100.956 21.1932 101.347 21.0909C101.741 20.9886 102.153 20.9167 102.585 20.875C103.093 20.822 103.502 20.7727 103.812 20.7273C104.123 20.678 104.348 20.6061 104.489 20.5114C104.629 20.4167 104.699 20.2765 104.699 20.0909V20.0568C104.699 19.697 104.585 19.4186 104.358 19.2216C104.134 19.0246 103.816 18.9261 103.403 18.9261C102.968 18.9261 102.621 19.0227 102.364 19.2159C102.106 19.4053 101.936 19.6439 101.852 19.9318L99.6136 19.75C99.7273 19.2197 99.9508 18.7614 100.284 18.375C100.617 17.9848 101.047 17.6856 101.574 17.4773C102.104 17.2652 102.718 17.1591 103.415 17.1591C103.9 17.1591 104.364 17.2159 104.807 17.3295C105.254 17.4432 105.65 17.6193 105.994 17.858C106.343 18.0966 106.617 18.4034 106.818 18.7784C107.019 19.1496 107.119 19.5947 107.119 20.1136V26H104.824V24.7898H104.756C104.616 25.0625 104.428 25.303 104.193 25.5114C103.958 25.7159 103.676 25.8769 103.347 25.9943C103.017 26.108 102.636 26.1648 102.205 26.1648ZM102.898 24.4943C103.254 24.4943 103.568 24.4242 103.841 24.2841C104.114 24.1402 104.328 23.947 104.483 23.7045C104.638 23.4621 104.716 23.1875 104.716 22.8807V21.9545C104.64 22.0038 104.536 22.0492 104.403 22.0909C104.275 22.1288 104.129 22.1648 103.966 22.1989C103.803 22.2292 103.64 22.2576 103.477 22.2841C103.314 22.3068 103.167 22.3277 103.034 22.3466C102.75 22.3883 102.502 22.4545 102.29 22.5455C102.078 22.6364 101.913 22.7595 101.795 22.9148C101.678 23.0663 101.619 23.2557 101.619 23.483C101.619 23.8125 101.739 24.0644 101.977 24.2386C102.22 24.4091 102.527 24.4943 102.898 24.4943ZM113.79 17.2727V19.0909H108.404V17.2727H113.79ZM109.637 26V16.642C109.637 16.0095 109.76 15.4848 110.006 15.0682C110.256 14.6515 110.597 14.339 111.029 14.1307C111.461 13.9223 111.951 13.8182 112.501 13.8182C112.872 13.8182 113.211 13.8466 113.518 13.9034C113.828 13.9602 114.059 14.0114 114.211 14.0568L113.779 15.875C113.684 15.8447 113.567 15.8163 113.427 15.7898C113.29 15.7633 113.15 15.75 113.006 15.75C112.65 15.75 112.402 15.8333 112.262 16C112.122 16.1629 112.052 16.392 112.052 16.6875V26H109.637ZM120.011 17.2727V19.0909H114.755V17.2727H120.011ZM115.949 15.1818H118.369V23.3182C118.369 23.5417 118.403 23.7159 118.471 23.8409C118.539 23.9621 118.634 24.0473 118.755 24.0966C118.88 24.1458 119.024 24.1705 119.187 24.1705C119.301 24.1705 119.414 24.161 119.528 24.142C119.642 24.1193 119.729 24.1023 119.789 24.0909L120.17 25.892C120.049 25.9299 119.879 25.9735 119.659 26.0227C119.439 26.0758 119.172 26.108 118.858 26.1193C118.274 26.142 117.763 26.0644 117.324 25.8864C116.888 25.7083 116.549 25.4318 116.307 25.0568C116.064 24.6818 115.945 24.2083 115.949 23.6364V15.1818Z" fill="#252B42"/>
</g>
<defs>
<clipPath id="clip0_893_86">
<rect width="121" height="40" fill="white"/>
</clipPath>
</defs>
</svg>
